<svg width="61" height="20" viewBox="0 0 61 20" fill="none" xmlns="http://www.w3.org/2000/svg">
<g id="logos:visa" clip-path="url(#clip0_108_1353)">
<path id="Vector" d="M31.5477 6.2973C31.5129 9.04135 33.9932 10.5725 35.8616 11.483C37.7812 12.4171 38.4259 13.0161 38.4183 13.8515C38.404 15.1299 36.8871 15.6942 35.4677 15.7161C32.9912 15.7544 31.5513 15.0475 30.4066 14.5128L29.5145 18.6872C30.663 19.2164 32.7896 19.678 34.9949 19.6982C40.1716 19.6982 43.5583 17.1429 43.5766 13.181C43.5969 8.1528 36.6217 7.87449 36.6693 5.62702C36.6858 4.94553 37.3361 4.2183 38.761 4.03339C39.4663 3.93999 41.4133 3.8685 43.6207 4.88501L44.4871 0.846146C43.3 0.413902 41.7743 7.62939e-06 39.8747 7.62939e-06C35.0023 7.62939e-06 31.5754 2.59012 31.5477 6.2973ZM52.8122 0.347898C51.8669 0.347898 51.0703 0.899281 50.7148 1.74542L43.3202 19.4016H48.4931L49.5225 16.5567H55.8436L56.4407 19.4016H61L57.0214 0.347898H52.8122ZM53.5358 5.49501L55.0287 12.6499H50.9402L53.5358 5.49501ZM25.2759 0.348137L21.1985 19.4013H26.1278L30.2033 0.34766H25.2759M17.9838 0.34766L12.8531 13.3166L10.7777 2.28965C10.5342 1.05869 9.57247 0.347898 8.5045 0.347898H0.117473L0 0.901188C1.72182 1.27481 3.67811 1.87743 4.86332 2.52221C5.58865 2.91609 5.79548 3.26041 6.03376 4.19638L9.96468 19.4016H15.1737L23.16 0.347898L17.9838 0.34766Z" fill="url(#paint0_linear_108_1353)"/>
</g>
<defs>
<linearGradient id="paint0_linear_108_1353" x1="2804.41" y1="59.2129" x2="2861.43" y2="-1963.82" gradientUnits="userSpaceOnUse">
<stop stop-color="#222357"/>
<stop offset="1" stop-color="#254AA5"/>
</linearGradient>
<clipPath id="clip0_108_1353">
<rect width="61" height="19.7773" fill="white"/>
</clipPath>
</defs>
</svg>
