<svg width="24" height="24" viewBox="0 0 24 24" fill="none" xmlns="http://www.w3.org/2000/svg">
<g id="akar-icons:shipping-box-v1">
<g id="Group">
<path id="Vector" d="M11.029 2.53998C11.326 2.37502 11.6602 2.28845 12 2.28845C12.3398 2.28845 12.674 2.37502 12.971 2.53998L20.486 6.71398C20.6418 6.80062 20.7716 6.92734 20.862 7.081C20.9524 7.23467 21 7.40971 21 7.58798V15.823C20.9999 16.1796 20.9045 16.5298 20.7235 16.8371C20.5426 17.1445 20.2828 17.3978 19.971 17.571L12.971 21.461C12.674 21.6259 12.3398 21.7125 12 21.7125C11.6602 21.7125 11.326 21.6259 11.029 21.461L4.029 17.571C3.71736 17.3979 3.45763 17.1447 3.27671 16.8375C3.0958 16.5304 3.00026 16.1805 3 15.824V7.58798C2.99999 7.40971 3.04764 7.23467 3.13802 7.081C3.22839 6.92734 3.3582 6.80062 3.514 6.71398L11.029 2.53998Z" stroke="#163688" stroke-width="2" stroke-linecap="round" stroke-linejoin="round"/>
<path id="Vector_2" d="M3 7L12 12M12 12L21 7M12 12V21.5" stroke="#163688" stroke-width="2" stroke-linejoin="round"/>
<path id="Vector_3" d="M7.5 9.5L16.5 4.5M6 12.328L9 14" stroke="#163688" stroke-width="2" stroke-linecap="round" stroke-linejoin="round"/>
</g>
</g>
</svg>
