<svg width="24" height="24" viewBox="0 0 24 24" fill="none" xmlns="http://www.w3.org/2000/svg">
<g id="fluent-mdl2:activate-orders">
<path id="Vector" d="M23.7773 17.0273L17.25 23.5664L14.0977 20.4023L15.1523 19.3477L17.25 21.4336L22.7227 15.9727L23.7773 17.0273ZM12 7.5H7.5V6H12V7.5ZM12 10.5H7.5V9H12V10.5ZM7.5 12H12V13.5H7.5V12ZM6 7.5H4.5V6H6V7.5ZM6 10.5H4.5V9H6V10.5ZM4.5 12H6V13.5H4.5V12ZM13.5 7.5V1.5H3V22.5H13.5V24H1.5V0H14.5664L21 6.43359V15L19.5 16.5V7.5H13.5ZM15 6H18.4336L15 2.56641V6Z" fill="#163688"/>
</g>
</svg>
