<svg width="201" height="200" viewBox="0 0 201 200" fill="none" xmlns="http://www.w3.org/2000/svg">
<path d="M100.5 177.917L88.4167 166.917C45.5 128 17.1667 102.25 17.1667 70.8333C17.1667 45.0833 37.3333 25 63 25C77.5 25 91.4167 31.75 100.5 42.3333C109.583 31.75 123.5 25 138 25C163.667 25 183.833 45.0833 183.833 70.8333C183.833 102.25 155.5 128 112.583 166.917L100.5 177.917Z" fill="#163688"/>
<line x1="100.854" y1="42.3536" x2="90.8536" y2="52.3536" stroke="white"/>
<line y1="-0.5" x2="14.1421" y2="-0.5" transform="matrix(0.707107 0.707107 0.707107 -0.707107 91.5 52)" stroke="white"/>
<line y1="-0.5" x2="14.1421" y2="-0.5" transform="matrix(0.707107 0.707107 0.707107 -0.707107 91.5 72)" stroke="white"/>
<path d="M91.1464 91.3535L102.5 102.5" stroke="white"/>
<path d="M93.5 111.104L104.854 122.25" stroke="white"/>
<path d="M95.5 131.104L106.854 142.25" stroke="white"/>
<path d="M97.4539 151.357L109.561 161.75" stroke="white"/>
<path d="M99.5 171.031L102.98 186.556" stroke="white"/>
<path d="M90.5 72.5L101.146 61.6465" stroke="white"/>
<line x1="91.1464" y1="91.6464" x2="101.146" y2="81.6464" stroke="white"/>
<line x1="93.1464" y1="111.646" x2="103.146" y2="101.646" stroke="white"/>
<line x1="95.1464" y1="131.646" x2="105.146" y2="121.646" stroke="white"/>
<line x1="97.1464" y1="151.646" x2="107.146" y2="141.646" stroke="white"/>
<line x1="99.1464" y1="171.646" x2="109.146" y2="161.646" stroke="white"/>
</svg>
