<svg width="25" height="25" viewBox="0 0 25 25" fill="none" xmlns="http://www.w3.org/2000/svg">
<g id="devicon:google" clip-path="url(#clip0_108_226)">
<path id="Vector" d="M8.61061 1.34333C6.21264 2.17521 4.14463 3.75414 2.71035 5.84821C1.27606 7.94227 0.551099 10.4411 0.641944 12.9776C0.73279 15.5142 1.63466 17.9547 3.21507 19.9408C4.79549 21.9269 6.97115 23.3539 9.42249 24.0121C11.4098 24.5249 13.492 24.5474 15.49 24.0777C17.3 23.6711 18.9733 22.8015 20.3462 21.554C21.7751 20.2159 22.8123 18.5136 23.3462 16.6302C23.9264 14.582 24.0297 12.4282 23.6481 10.334H12.4881V14.9633H18.9512C18.8221 15.7017 18.5453 16.4064 18.1374 17.0353C17.7295 17.6641 17.199 18.2043 16.5775 18.6233C15.7884 19.1456 14.8987 19.4969 13.9656 19.6546C13.0299 19.8286 12.0701 19.8286 11.1344 19.6546C10.1859 19.4587 9.28869 19.0673 8.49999 18.5052C7.23277 17.6082 6.28126 16.3338 5.78124 14.864C5.27291 13.3665 5.27291 11.7432 5.78124 10.2458C6.13716 9.19623 6.72555 8.24058 7.50249 7.4502C8.3916 6.5291 9.51724 5.8707 10.7559 5.54722C11.9946 5.22374 13.2984 5.2477 14.5244 5.61645C15.4821 5.91031 16.3579 6.42397 17.0819 7.11645C17.8106 6.39145 18.5381 5.66458 19.2644 4.93583C19.6394 4.54395 20.0481 4.17083 20.4175 3.76958C19.3122 2.74117 18.015 1.9409 16.6 1.41458C14.0232 0.478932 11.2037 0.453788 8.61061 1.34333Z" fill="white"/>
<path id="Vector_2" d="M8.61061 1.34332C11.2035 0.453179 14.023 0.477662 16.6 1.4127C18.0152 1.94259 19.3119 2.74672 20.4156 3.77895C20.0406 4.1802 19.645 4.5552 19.2625 4.9452C18.535 5.67145 17.8081 6.3952 17.0819 7.11645C16.3579 6.42397 15.4821 5.9103 14.5244 5.61645C13.2988 5.2464 11.995 5.22106 10.756 5.54321C9.51702 5.86537 8.3907 6.52256 7.50061 7.4427C6.72367 8.23308 6.13529 9.18873 5.77936 10.2383L1.89249 7.22895C3.28375 4.47 5.69264 2.35962 8.61061 1.34332Z" fill="#E33629"/>
<path id="Vector_3" d="M0.861248 10.2102C1.07001 9.17476 1.41686 8.17206 1.8925 7.22894L5.77937 10.2458C5.27104 11.7432 5.27104 13.3665 5.77937 14.8639C4.48437 15.8639 3.18875 16.8689 1.8925 17.8789C0.702156 15.5095 0.339122 12.8099 0.861248 10.2102Z" fill="#F8BD00"/>
<path id="Vector_4" d="M12.4881 10.3321H23.6481C24.0297 12.4264 23.9264 14.5802 23.3463 16.6283C22.8123 18.5117 21.7752 20.214 20.3463 21.5521C19.0919 20.5733 17.8319 19.6021 16.5775 18.6233C17.1994 18.2039 17.7302 17.6631 18.1381 17.0336C18.546 16.404 18.8226 15.6986 18.9513 14.9596H12.4881C12.4863 13.4183 12.4881 11.8752 12.4881 10.3321Z" fill="#587DBD"/>
<path id="Vector_5" d="M1.89062 17.879C3.18687 16.879 4.4825 15.874 5.7775 14.864C6.27851 16.3344 7.23138 17.6088 8.5 18.5053C9.29116 19.0647 10.1903 19.453 11.14 19.6453C12.0757 19.8193 13.0355 19.8193 13.9713 19.6453C14.9043 19.4875 15.794 19.1363 16.5831 18.614C17.8375 19.5928 19.0975 20.564 20.3519 21.5428C18.9792 22.791 17.3058 23.6613 15.4956 24.0684C13.4976 24.5381 11.4155 24.5156 9.42813 24.0028C7.85632 23.5831 6.38814 22.8433 5.11563 21.8296C3.76886 20.7602 2.66882 19.4126 1.89062 17.879Z" fill="#319F43"/>
</g>
<defs>
<clipPath id="clip0_108_226">
<rect width="24" height="24" fill="white" transform="translate(0.25 0.553955)"/>
</clipPath>
</defs>
</svg>
