<svg width="31" height="24" viewBox="0 0 31 24" fill="none" xmlns="http://www.w3.org/2000/svg">
<g id="logos:mastercard" clip-path="url(#clip0_108_1355)">
<path id="Vector" d="M5.95392 23.2044V21.6609C5.95392 21.0691 5.59368 20.6833 4.97622 20.6833C4.66755 20.6833 4.3331 20.7862 4.10153 21.1207C3.92153 20.8377 3.66431 20.6833 3.27841 20.6833C3.02106 20.6833 2.76396 20.7604 2.55806 21.0435V20.7348H2.01782V23.2044H2.55806V21.8409C2.55806 21.4037 2.78962 21.1978 3.14985 21.1978C3.50985 21.1978 3.69009 21.4294 3.69009 21.8409V23.2044H4.23032V21.8409C4.23032 21.4037 4.48743 21.1978 4.82188 21.1978C5.18212 21.1978 5.36212 21.4294 5.36212 21.8409V23.2044H5.95392ZM13.9544 20.7348H13.0799V19.9888H12.5396V20.7348H12.0508V21.2235H12.5395V22.3555C12.5395 22.9215 12.7711 23.2558 13.3885 23.2558C13.6201 23.2558 13.8772 23.1787 14.0574 23.0758L13.903 22.6127C13.7486 22.7156 13.5686 22.7414 13.44 22.7414C13.1827 22.7414 13.0799 22.587 13.0799 22.3297V21.2235H13.9544V20.7348ZM18.5336 20.6832C18.225 20.6832 18.0192 20.8377 17.8905 21.0435V20.7348H17.3503V23.2044H17.8905V21.8152C17.8905 21.4037 18.0705 21.1721 18.405 21.1721C18.5079 21.1721 18.6365 21.1979 18.7394 21.2236L18.8938 20.7091C18.7909 20.6833 18.6365 20.6833 18.5336 20.6833V20.6832ZM11.6135 20.9406C11.3561 20.7604 10.996 20.6833 10.6101 20.6833C9.99278 20.6833 9.58122 20.992 9.58122 21.4808C9.58122 21.8925 9.88989 22.1239 10.4301 22.2011L10.6874 22.2269C10.9704 22.2783 11.1247 22.3555 11.1247 22.4842C11.1247 22.6642 10.9189 22.7928 10.5587 22.7928C10.1986 22.7928 9.91556 22.6642 9.73544 22.5356L9.47821 22.9472C9.76122 23.1529 10.1471 23.2558 10.5329 23.2558C11.2533 23.2558 11.6649 22.9215 11.6649 22.4584C11.6649 22.021 11.3305 21.7895 10.8159 21.7124L10.5587 21.6866C10.3271 21.6608 10.1471 21.6095 10.1471 21.4551C10.1471 21.275 10.3271 21.1721 10.6101 21.1721C10.9189 21.1721 11.2276 21.3007 11.3819 21.3779L11.6135 20.9406ZM25.9684 20.6833C25.6596 20.6833 25.4538 20.8377 25.3251 21.0435V20.7348H24.7849V23.2044H25.3251V21.8152C25.3251 21.4037 25.5052 21.1721 25.8396 21.1721C25.9426 21.1721 26.0713 21.1979 26.1741 21.2236L26.3285 20.7091C26.2256 20.6833 26.0713 20.6833 25.9684 20.6833ZM19.0739 21.9696C19.0739 22.7156 19.5883 23.2558 20.3859 23.2558C20.746 23.2558 21.0033 23.1787 21.2605 22.9729L21.0033 22.5356C20.7975 22.6899 20.5917 22.767 20.3601 22.767C19.9228 22.767 19.6141 22.4584 19.6141 21.9696C19.6141 21.5066 19.9228 21.1978 20.3601 21.1721C20.5917 21.1721 20.7975 21.2492 21.0033 21.4037L21.2605 20.9663C21.0033 20.7604 20.746 20.6833 20.3859 20.6833C19.5883 20.6833 19.0739 21.2236 19.0739 21.9696ZM24.0647 21.9696V20.7348H23.5244V21.0435C23.3443 20.812 23.0871 20.6833 22.7526 20.6833C22.0581 20.6833 21.5178 21.2236 21.5178 21.9696C21.5178 22.7156 22.0581 23.2558 22.7526 23.2558C23.1127 23.2558 23.3701 23.1273 23.5244 22.8957V23.2044H24.0647V21.9696ZM22.0837 21.9696C22.0837 21.5322 22.3667 21.1721 22.8297 21.1721C23.2671 21.1721 23.5759 21.5066 23.5759 21.9696C23.5759 22.4069 23.2671 22.767 22.8297 22.767C22.3667 22.7413 22.0837 22.4069 22.0837 21.9696ZM15.6267 20.6833C14.9063 20.6833 14.3918 21.1978 14.3918 21.9696C14.3918 22.7414 14.9062 23.2558 15.6524 23.2558C16.0125 23.2558 16.3727 23.1529 16.6557 22.9215L16.3984 22.5356C16.1926 22.6899 15.9354 22.7928 15.6781 22.7928C15.3437 22.7928 15.0092 22.6385 14.932 22.201H16.7586V21.9954C16.7844 21.1978 16.3214 20.6833 15.6267 20.6833ZM15.6267 21.1463C15.961 21.1463 16.1927 21.3522 16.244 21.7381H14.9578C15.0092 21.4037 15.2408 21.1463 15.6267 21.1463ZM29.0297 21.9696V19.7572H28.4894V21.0435C28.3093 20.812 28.0521 20.6833 27.7176 20.6833C27.0231 20.6833 26.4828 21.2236 26.4828 21.9696C26.4828 22.7156 27.0231 23.2558 27.7176 23.2558C28.0779 23.2558 28.3351 23.1273 28.4894 22.8957V23.2044H29.0297V21.9696ZM27.0488 21.9696C27.0488 21.5322 27.3317 21.1721 27.7949 21.1721C28.2322 21.1721 28.5409 21.5066 28.5409 21.9696C28.5409 22.4069 28.2322 22.767 27.7949 22.767C27.3317 22.7413 27.0488 22.4069 27.0488 21.9696ZM8.98942 21.9696V20.7348H8.44919V21.0435C8.26907 20.812 8.01185 20.6833 7.67739 20.6833C6.98282 20.6833 6.44259 21.2236 6.44259 21.9696C6.44259 22.7156 6.98282 23.2558 7.67739 23.2558C8.03763 23.2558 8.29485 23.1273 8.44919 22.8957V23.2044H8.98942V21.9696ZM6.98282 21.9696C6.98282 21.5322 7.26583 21.1721 7.72884 21.1721C8.16618 21.1721 8.47497 21.5066 8.47497 21.9696C8.47497 22.4069 8.16618 22.767 7.72884 22.767C7.26583 22.7413 6.98282 22.4069 6.98282 21.9696Z" fill="black"/>
<path id="Vector_2" d="M11.4333 1.98083H19.5369V16.5415H11.4333V1.98083Z" fill="#FF5F00"/>
<path id="Vector_3" d="M11.9479 9.26121C11.9479 6.30281 13.3371 3.67875 15.4722 1.98082C13.9031 0.746016 11.9223 0 9.76133 0C4.64176 0 0.5 4.14176 0.5 9.26121C0.5 14.3805 4.64176 18.5224 9.76121 18.5224C11.9221 18.5224 13.903 17.7764 15.4722 16.5415C13.3371 14.8693 11.9479 12.2196 11.9479 9.26121Z" fill="#EB001B"/>
<path id="Vector_4" d="M30.4703 9.26121C30.4703 14.3805 26.3285 18.5224 21.2091 18.5224C19.0481 18.5224 17.0673 17.7764 15.498 16.5415C17.659 14.8437 19.0225 12.2196 19.0225 9.26121C19.0225 6.30281 17.6332 3.67875 15.498 1.98082C17.0672 0.746016 19.0481 0 21.2091 0C26.3285 0 30.4703 4.16754 30.4703 9.26121Z" fill="#F79E1B"/>
</g>
<defs>
<clipPath id="clip0_108_1355">
<rect width="30" height="23.3203" fill="white" transform="translate(0.5)"/>
</clipPath>
</defs>
</svg>
