<svg width="30" height="30" viewBox="0 0 30 30" fill="none" xmlns="http://www.w3.org/2000/svg">
<g id="maki:arrow">
<path id="Vector" d="M13.414 25.414C13.0389 25.7889 12.5303 25.9996 12 25.9996C11.4697 25.9996 10.9611 25.7889 10.586 25.414L1.586 16.414C1.21106 16.0389 1.00043 15.5303 1.00043 15C1.00043 14.4697 1.21106 13.9611 1.586 13.586L10.586 4.586C10.9632 4.22168 11.4684 4.02009 11.9928 4.02465C12.5172 4.02921 13.0188 4.23954 13.3896 4.61036C13.7605 4.98118 13.9708 5.4828 13.9753 6.0072C13.9799 6.53159 13.7783 7.03679 13.414 7.414L8 13L27 13C27.5304 13 28.0391 13.2107 28.4142 13.5858C28.7893 13.9609 29 14.4696 29 15C29 15.5304 28.7893 16.0391 28.4142 16.4142C28.0391 16.7893 27.5304 17 27 17H8L13.414 22.586C13.7889 22.9611 13.9996 23.4697 13.9996 24C13.9996 24.5303 13.7889 25.0389 13.414 25.414Z" fill="#163688"/>
</g>
</svg>
