<svg width="24" height="24" viewBox="0 0 24 24" fill="none" xmlns="http://www.w3.org/2000/svg">
<g clip-path="url(#clip0_22_991)">
<path d="M11.2392 2.34164C11.4786 1.60459 12.5214 1.60459 12.7608 2.34164L14.5146 7.73901C14.6217 8.06863 14.9288 8.2918 15.2754 8.2918H20.9505C21.7255 8.2918 22.0477 9.28349 21.4208 9.73901L16.8295 13.0748C16.5491 13.2785 16.4318 13.6396 16.5389 13.9692L18.2926 19.3666C18.5321 20.1036 17.6885 20.7165 17.0615 20.261L12.4702 16.9252C12.1898 16.7215 11.8102 16.7215 11.5298 16.9252L6.9385 20.261C6.31153 20.7165 5.46794 20.1036 5.70742 19.3666L7.46113 13.9692C7.56823 13.6396 7.45091 13.2785 7.17052 13.0748L2.57924 9.73901C1.95227 9.28349 2.27449 8.2918 3.04947 8.2918H8.7246C9.07118 8.2918 9.37834 8.06863 9.48544 7.73901L11.2392 2.34164Z" fill="#FFD700"/>
</g>
<g clip-path="url(#clip1_22_991)">
<path d="M12.7608 2.34164C12.5214 1.60459 11.4786 1.60459 11.2392 2.34164L9.48544 7.73901C9.37834 8.06863 9.07118 8.2918 8.7246 8.2918H3.04947C2.27449 8.2918 1.95227 9.28349 2.57924 9.73901L7.17052 13.0748C7.45091 13.2785 7.56823 13.6396 7.46113 13.9692L5.70742 19.3666C5.46794 20.1036 6.31153 20.7165 6.9385 20.261L11.5298 16.9252C11.8102 16.7215 12.1898 16.7215 12.4702 16.9252L17.0615 20.261C17.6885 20.7165 18.5321 20.1036 18.2926 19.3666L16.5389 13.9692C16.4318 13.6396 16.5491 13.2785 16.8295 13.0748L21.4208 9.73901C22.0477 9.28349 21.7255 8.2918 20.9505 8.2918H15.2754C14.9288 8.2918 14.6217 8.06863 14.5146 7.73901L12.7608 2.34164Z" fill="#D9D9D9"/>
</g>
<defs>
<clipPath id="clip0_22_991">
<rect width="12" height="24" fill="white"/>
</clipPath>
<clipPath id="clip1_22_991">
<rect width="12" height="24" fill="white" transform="matrix(-1 0 0 1 24 0)"/>
</clipPath>
</defs>
</svg>
