<svg width="25" height="25" viewBox="0 0 25 25" fill="none" xmlns="http://www.w3.org/2000/svg">
<g id="logos:facebook" clip-path="url(#clip0_108_1203)">
<path id="Vector" d="M24.25 12.554C24.25 5.92658 18.8774 0.553955 12.25 0.553955C5.62262 0.553955 0.25 5.92649 0.25 12.554C0.25 18.5435 4.63825 23.508 10.375 24.4082V16.0227H7.32812V12.554H10.375V9.91021C10.375 6.90271 12.1666 5.24146 14.9075 5.24146C16.2205 5.24146 17.5938 5.47583 17.5938 5.47583V8.42896H16.0806C14.5898 8.42896 14.125 9.35399 14.125 10.303V12.554H17.4531L16.9211 16.0227H14.125V24.4082C19.8617 23.508 24.25 18.5435 24.25 12.554Z" fill="#1877F2"/>
<path id="Vector_2" d="M16.9211 16.0227L17.4531 12.554H14.125V10.303C14.125 9.35389 14.5899 8.42896 16.0806 8.42896H17.5938V5.47583C17.5938 5.47583 16.2205 5.24146 14.9075 5.24146C12.1666 5.24146 10.375 6.90271 10.375 9.91021V12.554H7.32812V16.0227H10.375V24.4082C10.9953 24.5054 11.6222 24.5541 12.25 24.554C12.8778 24.5541 13.5047 24.5054 14.125 24.4082V16.0227H16.9211Z" fill="white"/>
</g>
<defs>
<clipPath id="clip0_108_1203">
<rect width="24" height="24" fill="white" transform="translate(0.25 0.553955)"/>
</clipPath>
</defs>
</svg>
