<svg width="274" height="131" viewBox="0 0 274 131" fill="none" xmlns="http://www.w3.org/2000/svg">
<path d="M39.184 130.589C31.6613 130.589 24.924 129.473 18.972 127.241C13.1027 125.092 8.47333 121.909 5.084 117.693C1.69467 113.477 0 108.352 0 102.317C0 98.1839 0.950667 93.5959 2.852 88.5532C3.92667 85.7426 5.53867 83.1386 7.688 80.7412C9.92 78.2612 12.1933 76.2359 14.508 74.6652C16.8227 73.0946 18.6413 72.2679 19.964 72.1852H20.336C21.08 72.1852 21.452 72.3092 21.452 72.5572C21.452 72.9706 20.9147 73.4252 19.84 73.9212C18.5173 74.4999 16.8227 75.7399 14.756 77.6412C12.772 79.5426 10.8707 81.8986 9.052 84.7092C7.23333 87.4372 5.86933 90.5372 4.96 94.0092C4.62933 95.1666 4.38133 96.3239 4.216 97.4812C4.13333 98.6386 4.092 99.7546 4.092 100.829C4.092 105.293 5.12533 109.137 7.192 112.361C9.34133 115.585 12.152 118.231 15.624 120.297C19.1787 122.447 23.064 124.017 27.28 125.009C31.496 126.084 35.712 126.621 39.928 126.621C41.8293 126.621 43.6893 126.497 45.508 126.249C47.4093 126.084 49.1867 125.795 50.84 125.381C58.1147 123.563 64.728 120.793 70.68 117.073C76.632 113.353 81.964 109.096 86.676 104.301C91.4707 99.5066 95.6453 94.5466 99.2 89.4212C102.755 84.2132 105.772 79.2119 108.252 74.4172C110.732 69.6226 112.633 65.3652 113.956 61.6452C116.436 55.0319 118.916 48.9559 121.396 43.4172C123.959 37.8786 126.273 33.2079 128.34 29.4052C130.407 25.5199 131.895 22.8332 132.804 21.3452C128.34 22.3372 123.545 23.4946 118.42 24.8172C113.377 26.0572 108.376 27.6692 103.416 29.6532C98.456 31.5546 93.7853 33.9106 89.404 36.7212C85.1053 39.5319 81.4267 42.9212 78.368 46.8892C75.3093 50.8572 73.16 55.5279 71.92 60.9012C71.5067 62.8026 71.3 64.4559 71.3 65.8612C71.3 69.4986 72.168 72.4746 73.904 74.7892C75.7227 77.0212 78.1613 78.1372 81.22 78.1372C82.956 78.1372 84.7333 77.7652 86.552 77.0212C89.6107 75.7812 91.9667 74.1692 93.62 72.1852C95.356 70.1186 96.5547 68.0106 97.216 65.8612C97.8773 63.6292 98.208 61.6452 98.208 59.9092C98.208 57.4292 97.836 55.8999 97.092 55.3212C97.092 55.2386 97.0507 55.1972 96.968 55.1972C96.968 55.1972 96.968 55.1559 96.968 55.0732C96.968 54.6599 97.1333 54.2466 97.464 53.8332C97.8773 53.4199 98.2907 53.2132 98.704 53.2132C99.1173 53.2132 99.448 53.5026 99.696 54.0812C100.688 56.0652 101.184 58.1319 101.184 60.2812C101.184 62.9266 100.523 65.5719 99.2 68.2172C97.96 70.8626 96.224 73.2186 93.992 75.2852C91.8427 77.3519 89.4453 78.8812 86.8 79.8732C84.32 80.8652 81.84 81.3612 79.36 81.3612C74.896 81.3612 71.052 79.8732 67.828 76.8972C64.6867 73.8386 63.116 69.9119 63.116 65.1172C63.116 63.6292 63.2813 62.2239 63.612 60.9012C64.9347 55.0319 67.456 49.9066 71.176 45.5252C74.896 41.1439 79.4013 37.3826 84.692 34.2412C89.9827 31.0999 95.5627 28.4959 101.432 26.4292C107.384 24.2799 113.253 22.5439 119.04 21.2212C124.827 19.8986 130.076 18.8239 134.788 17.9972C135.119 17.3359 135.78 16.3026 136.772 14.8972C137.764 13.4092 138.921 12.0039 140.244 10.6812C141.567 9.2759 142.889 8.36657 144.212 7.95323C145.204 7.62257 146.279 7.45723 147.436 7.45723C148.593 7.45723 149.544 7.74656 150.288 8.32523C151.032 8.9039 151.404 9.81323 151.404 11.0532C151.404 13.4506 150.371 15.2692 148.304 16.5092C146.32 17.6666 144.129 18.6999 141.732 19.6092C140.988 19.6092 140.079 19.8159 139.004 20.2292C138.012 20.5599 137.227 20.7252 136.648 20.7252C133.589 26.2639 131.068 31.7199 129.084 37.0932C127.1 42.4666 125.281 47.7572 123.628 52.9652C122.057 58.0906 120.404 63.2159 118.668 68.3412C116.932 73.3839 114.783 78.4679 112.22 83.5932C109.657 88.6359 106.392 93.7199 102.424 98.8452C95.6453 107.608 87.9987 114.511 79.484 119.553C71.052 124.596 62.3307 127.861 53.32 129.349C50.84 129.763 48.4013 130.052 46.004 130.217C43.6067 130.465 41.3333 130.589 39.184 130.589ZM138.756 17.5012C141.98 16.8399 144.129 16.0959 145.204 15.2692C146.361 14.4426 146.94 13.6986 146.94 13.0372C146.94 12.5412 146.775 12.1692 146.444 11.9212C146.113 11.5906 145.783 11.4252 145.452 11.4252C145.039 11.2599 144.419 11.5492 143.592 12.2932C142.765 12.9546 141.897 13.8226 140.988 14.8972C140.161 15.8892 139.417 16.7572 138.756 17.5012Z" fill="#172145"/>
<path d="M105.027 112.113C108.003 106.079 110.855 100.127 113.583 94.2572C116.394 88.3052 119.246 82.6426 122.139 77.2692C123.792 74.2932 125.156 72.2266 126.231 71.0692C127.388 69.8292 128.918 69.2092 130.819 69.2092C131.48 69.2092 132.183 69.3332 132.927 69.5812C133.671 69.7466 134.415 69.8292 135.159 69.8292C135.655 69.8292 136.027 69.7879 136.275 69.7052C135.118 70.3666 133.63 72.0199 131.811 74.6652C129.992 77.2279 128.132 80.2039 126.231 83.5932C124.33 86.9826 122.635 90.1652 121.147 93.1412C122.718 91.2399 124.33 89.3386 125.983 87.4372C127.719 85.5359 129.62 83.7172 131.687 81.9812C133.671 80.2452 136.027 78.4679 138.755 76.6492C141.566 74.7479 144.294 73.1772 146.939 71.9372C149.584 70.6972 151.692 70.0772 153.263 70.0772C153.842 70.0772 154.255 70.1186 154.503 70.2012C154.503 70.2012 154.048 71.0279 153.139 72.6812C152.23 74.2519 151.072 76.3599 149.667 79.0052C148.344 81.5679 146.98 84.3372 145.575 87.3132C144.17 90.2066 142.888 93.0172 141.731 95.7452C140.656 98.3906 139.954 100.623 139.623 102.441C139.375 103.516 139.251 104.508 139.251 105.417C139.251 106.74 139.499 107.608 139.995 108.021C140.491 108.435 141.028 108.641 141.607 108.641C143.178 108.641 144.831 107.815 146.567 106.161C148.303 104.425 149.956 102.317 151.527 99.8372C153.18 97.3572 154.627 94.9599 155.867 92.6452C157.19 90.2479 158.14 88.4292 158.719 87.1892C159.05 86.5279 159.298 86.1559 159.463 86.0732C159.628 85.9079 159.876 85.8252 160.207 85.8252C160.703 85.8252 160.951 86.1559 160.951 86.8172C160.951 87.2306 160.827 87.6852 160.579 88.1812C159.587 90.0826 158.388 92.3559 156.983 95.0012C155.66 97.6466 154.131 100.251 152.395 102.813C150.659 105.293 148.758 107.401 146.691 109.137C144.624 110.791 142.392 111.617 139.995 111.617C138.342 111.617 136.606 111.039 134.787 109.881C133.051 108.724 132.183 106.575 132.183 103.433C132.183 102.524 132.266 101.573 132.431 100.581C132.596 99.5066 132.886 98.3492 133.299 97.1092C133.96 95.4559 134.746 93.6786 135.655 91.7772C136.564 89.8759 138.052 87.2719 140.119 83.9652C140.698 83.0559 141.028 82.3532 141.111 81.8572C141.276 81.3612 141.359 80.9479 141.359 80.6172C141.359 79.6252 140.904 79.1292 139.995 79.1292C139.251 79.1292 138.135 79.5426 136.647 80.3692C135.242 81.1959 133.464 82.6426 131.315 84.7092C129.248 86.6932 126.768 89.5039 123.875 93.1412C121.064 96.7786 117.799 102.152 114.079 109.261C113.5 110.336 112.839 110.915 112.095 110.997C111.434 111.08 110.483 111.163 109.243 111.245C108.416 111.328 107.631 111.369 106.887 111.369C106.143 111.452 105.523 111.7 105.027 112.113Z" fill="#172145"/>
<path d="M174.707 111.989C172.475 111.741 170.45 110.708 168.631 108.889C166.895 106.988 165.697 104.467 165.035 101.325C164.953 100.747 164.87 100.251 164.787 99.8372C164.787 99.3412 164.787 98.8039 164.787 98.2252C164.787 94.9186 165.531 92.2732 167.019 90.2892C168.507 88.2226 169.871 87.1479 171.111 87.0652C172.434 87.1479 174.046 86.8586 175.947 86.1972C177.849 85.4532 179.502 84.4612 180.907 83.2212C183.305 81.3199 184.503 79.3772 184.503 77.3932C184.503 75.3266 183.305 74.2932 180.907 74.2932C179.585 74.2932 177.89 74.7479 175.823 75.6572C173.839 76.5666 171.525 78.1372 168.879 80.3692C165.573 83.1799 162.142 86.9412 158.587 91.6532C158.091 92.7279 157.513 94.3399 156.851 96.4892C156.19 98.5559 155.611 100.705 155.115 102.937C154.702 105.169 154.495 107.071 154.495 108.641C154.495 109.881 154.702 110.708 155.115 111.121H147.303C146.394 111.121 145.939 110.749 145.939 110.005C145.939 109.757 145.981 109.551 146.063 109.385C146.146 109.22 146.229 108.889 146.311 108.393C147.469 104.095 148.998 100.044 150.899 96.2412C152.801 92.4386 154.702 88.4292 156.603 84.2132C153.71 89.5866 151.065 94.3399 148.667 98.4732C146.353 102.524 144.575 105.128 143.335 106.285C143.17 106.451 142.963 106.533 142.715 106.533C142.385 106.533 142.178 106.327 142.095 105.913C141.93 105.5 142.013 105.087 142.343 104.673C144.079 102.359 146.063 99.1759 148.295 95.1252C150.61 91.0746 153.049 86.5692 155.611 81.6092C158.174 76.5666 160.778 71.4826 163.423 66.3572C166.069 61.2319 168.631 56.3959 171.111 51.8492C173.674 47.3026 175.989 43.4586 178.055 40.3172C179.543 38.0852 180.949 36.5146 182.271 35.6052C183.594 34.6132 184.958 34.1172 186.363 34.1172H186.983C187.727 34.1172 188.554 34.2412 189.463 34.4892C190.455 34.7372 191.365 34.7786 192.191 34.6132C190.621 35.8532 188.719 37.8786 186.487 40.6892C184.255 43.4999 181.899 46.8479 179.419 50.7332C176.939 54.6186 174.418 58.7519 171.855 63.1332C169.375 67.5146 167.019 71.8546 164.787 76.1532C163.961 77.8066 163.175 79.5426 162.431 81.3612C161.687 83.1799 160.985 84.9986 160.323 86.8172C162.059 84.6679 164.043 82.4359 166.275 80.1212C168.507 77.8066 170.822 75.6986 173.219 73.7972C175.699 71.8132 178.138 70.3666 180.535 69.4572C183.263 68.4652 185.537 67.9692 187.355 67.9692C189.257 67.9692 190.621 68.4239 191.447 69.3332C192.357 70.2426 192.811 71.3999 192.811 72.8052C192.811 74.3759 192.191 76.2772 190.951 78.5092C189.711 80.6586 188.017 82.5186 185.867 84.0892C184.049 85.3292 182.147 86.4039 180.163 87.3132C178.179 88.2226 175.823 88.8012 173.095 89.0492C172.599 90.2066 172.227 91.4052 171.979 92.6452C171.814 93.8026 171.731 94.9599 171.731 96.1172C171.731 99.3412 172.475 102.193 173.963 104.673C175.451 107.071 177.394 108.269 179.791 108.269C180.949 108.269 182.189 107.939 183.511 107.277C184.917 106.616 186.363 105.5 187.851 103.929C189.505 102.276 191.158 99.9199 192.811 96.8612C194.547 93.8026 196.283 90.4546 198.019 86.8172C198.35 86.1559 198.722 85.8252 199.135 85.8252C199.631 85.8252 199.879 86.1559 199.879 86.8172C199.879 87.1479 199.755 87.5612 199.507 88.0572C197.11 93.5959 194.795 98.0186 192.563 101.325C190.414 104.549 188.306 106.988 186.239 108.641C184.255 110.212 182.313 111.204 180.411 111.617C178.51 112.031 176.609 112.155 174.707 111.989Z" fill="#172145"/>
<path d="M273.456 1.23605C263.82 9.5115 256.063 19.7509 250.706 31.2682C250.086 32.6334 249.498 33.9489 248.939 35.241C244.244 38.5241 239.102 41.1156 233.67 42.9359C237.836 43.2419 242.022 42.7835 246.022 41.583C242.935 48.7847 238.93 55.5576 234.109 61.7338C229.71 62.7572 225.252 63.5102 220.762 63.9887C224.138 64.7009 227.58 65.0619 231.031 65.066C224.698 71.1555 216.756 74.9045 204.837 76.1703L194.38 98.5927C196.304 90.8121 198.873 83.2057 202.063 75.8528C211.425 54.2113 224.776 34.5243 241.417 17.8188C219.367 32.0859 205.138 60.6811 200.857 70.4291C198.44 54.643 202.287 38.5372 211.578 25.5478C211.592 28.1816 211.857 30.808 212.371 33.3913C213.006 29.1689 213.966 25.0016 215.241 20.9263C221.691 13.5305 229.829 7.79832 238.964 4.21535C248.1 0.632381 257.965 -0.695819 267.723 0.343269C269.662 0.546636 271.6 0.750006 273.456 1.23605Z" fill="#172145"/>
</svg>
