<svg width="30" height="30" viewBox="0 0 30 30" fill="none" xmlns="http://www.w3.org/2000/svg">
<g id="mi:options-vertical" clip-path="url(#clip0_33_2939)">
<g id="Vector" filter="url(#filter0_d_33_2939)">
<path d="M12.5 15C12.5 15.663 12.7634 16.2989 13.2322 16.7678C13.7011 17.2366 14.337 17.5 15 17.5C15.663 17.5 16.2989 17.2366 16.7678 16.7678C17.2366 16.2989 17.5 15.663 17.5 15C17.5 14.337 17.2366 13.7011 16.7678 13.2322C16.2989 12.7634 15.663 12.5 15 12.5C14.337 12.5 13.7011 12.7634 13.2322 13.2322C12.7634 13.7011 12.5 14.337 12.5 15ZM12.5 7.5C12.5 8.16304 12.7634 8.79893 13.2322 9.26777C13.7011 9.73661 14.337 10 15 10C15.663 10 16.2989 9.73661 16.7678 9.26777C17.2366 8.79893 17.5 8.16304 17.5 7.5C17.5 6.83696 17.2366 6.20107 16.7678 5.73223C16.2989 5.26339 15.663 5 15 5C14.337 5 13.7011 5.26339 13.2322 5.73223C12.7634 6.20107 12.5 6.83696 12.5 7.5ZM12.5 22.5C12.5 23.163 12.7634 23.7989 13.2322 24.2678C13.7011 24.7366 14.337 25 15 25C15.663 25 16.2989 24.7366 16.7678 24.2678C17.2366 23.7989 17.5 23.163 17.5 22.5C17.5 21.837 17.2366 21.2011 16.7678 20.7322C16.2989 20.2634 15.663 20 15 20C14.337 20 13.7011 20.2634 13.2322 20.7322C12.7634 21.2011 12.5 21.837 12.5 22.5Z" fill="#163688"/>
</g>
</g>
<defs>
<filter id="filter0_d_33_2939" x="10.5" y="3" width="13" height="28" filterUnits="userSpaceOnUse" color-interpolation-filters="sRGB">
<feFlood flood-opacity="0" result="BackgroundImageFix"/>
<feColorMatrix in="SourceAlpha" type="matrix" values="0 0 0 0 0 0 0 0 0 0 0 0 0 0 0 0 0 0 127 0" result="hardAlpha"/>
<feOffset dx="2" dy="2"/>
<feGaussianBlur stdDeviation="2"/>
<feComposite in2="hardAlpha" operator="out"/>
<feColorMatrix type="matrix" values="0 0 0 0 0.0901961 0 0 0 0 0.129412 0 0 0 0 0.270588 0 0 0 0.25 0"/>
<feBlend mode="normal" in2="BackgroundImageFix" result="effect1_dropShadow_33_2939"/>
<feBlend mode="normal" in="SourceGraphic" in2="effect1_dropShadow_33_2939" result="shape"/>
</filter>
<clipPath id="clip0_33_2939">
<rect width="30" height="30" fill="white"/>
</clipPath>
</defs>
</svg>
