<svg width="24" height="24" viewBox="0 0 24 24" fill="none" xmlns="http://www.w3.org/2000/svg">
<path d="M11.2392 2.34164C11.4786 1.60459 12.5214 1.60459 12.7608 2.34164L14.5146 7.73901C14.6217 8.06863 14.9288 8.2918 15.2754 8.2918H20.9505C21.7255 8.2918 22.0477 9.28349 21.4208 9.73901L16.8295 13.0748C16.5491 13.2785 16.4318 13.6396 16.5389 13.9692L18.2926 19.3666C18.5321 20.1036 17.6885 20.7165 17.0615 20.261L12.4702 16.9252C12.1898 16.7215 11.8102 16.7215 11.5298 16.9252L6.9385 20.261C6.31153 20.7165 5.46794 20.1036 5.70742 19.3666L7.46113 13.9692C7.56823 13.6396 7.45091 13.2785 7.17052 13.0748L2.57924 9.73901C1.95227 9.28349 2.27449 8.2918 3.04947 8.2918H8.7246C9.07118 8.2918 9.37834 8.06863 9.48544 7.73901L11.2392 2.34164Z" fill="#FFD700"/>
</svg>
