<svg width="261" height="217" viewBox="0 0 261 217" fill="none" xmlns="http://www.w3.org/2000/svg">
<path d="M80.787 195.914C75.1999 195.914 70.72 200.394 70.72 205.981C70.72 208.651 71.7807 211.212 73.6686 213.1C75.5565 214.988 78.1171 216.048 80.787 216.048C83.457 216.048 86.0176 214.988 87.9055 213.1C89.7934 211.212 90.8541 208.651 90.8541 205.981C90.8541 203.312 89.7934 200.751 87.9055 198.863C86.0176 196.975 83.457 195.914 80.787 195.914ZM0.250961 115.378V125.445H10.318L28.4386 163.65L21.593 175.982C20.838 177.391 20.385 179.052 20.385 180.814C20.385 183.484 21.4456 186.044 23.3335 187.932C25.2215 189.82 27.7821 190.881 30.452 190.881H90.8541V180.814H32.5661C32.2323 180.814 31.9123 180.681 31.6763 180.445C31.4403 180.209 31.3077 179.889 31.3077 179.556C31.3077 179.304 31.358 179.103 31.4587 178.952L35.9889 170.747H73.4885C77.2636 170.747 80.5857 168.633 82.2971 165.562L100.317 132.996C100.669 132.19 100.921 131.335 100.921 130.479C100.921 129.144 100.391 127.864 99.4468 126.92C98.5028 125.976 97.2225 125.445 95.8876 125.445H21.442L16.7105 115.378M30.452 195.914C24.8648 195.914 20.385 200.394 20.385 205.981C20.385 208.651 21.4456 211.212 23.3335 213.1C25.2215 214.988 27.7821 216.048 30.452 216.048C33.1219 216.048 35.6825 214.988 37.5704 213.1C39.4584 211.212 40.519 208.651 40.519 205.981C40.519 203.312 39.4584 200.751 37.5704 198.863C35.6825 196.975 33.1219 195.914 30.452 195.914Z" fill="#172145"/>
<path d="M179.666 0L181.906 3.34615C178.83 5.40523 176.181 8.05411 174.122 11.1298L170.776 8.88956C173.128 5.37653 176.152 2.35191 179.666 0Z" fill="#172145"/>
<path d="M165.963 20.5014C165.561 22.5348 165.35 24.637 165.35 26.7884C165.35 28.9399 165.561 31.0421 165.963 33.0754L169.913 32.294C169.562 30.5166 169.377 28.6761 169.377 26.7884C169.377 24.9007 169.562 23.0603 169.913 21.2829L165.963 20.5014Z" fill="#172145"/>
<path d="M170.776 44.6872L174.122 42.4471C176.181 45.5227 178.83 48.1716 181.906 50.2307L179.666 53.5768C176.152 51.2249 173.128 48.2003 170.776 44.6872Z" fill="#172145"/>
<path d="M191.277 58.3897L192.059 54.4394C193.836 54.791 195.677 54.976 197.564 54.976C199.452 54.976 201.293 54.791 203.07 54.4394L203.851 58.3897C201.818 58.7919 199.716 59.0028 197.564 59.0028C195.413 59.0028 193.311 58.7919 191.277 58.3897Z" fill="#172145"/>
<path d="M126.857 63.5476L122.898 62.8103C123.722 58.3875 124.263 54.1008 124.532 50.0144L128.55 50.2789C128.27 54.5328 127.708 58.9775 126.857 63.5476Z" fill="#172145"/>
<path d="M128.452 36.9158L124.441 37.2749C124.031 32.6923 123.197 28.6209 121.996 25.1663L125.799 23.844C127.129 27.6681 128.018 32.0723 128.452 36.9158Z" fill="#172145"/>
<path d="M118.861 12.5672C117.169 11.0342 115.267 9.87814 113.162 9.14864C111.057 8.41914 108.848 8.15082 106.57 8.30818L106.848 12.3254C108.623 12.2027 110.286 12.4138 111.844 12.9535C113.401 13.4931 114.838 14.3563 116.157 15.5513L118.861 12.5672Z" fill="#172145"/>
<path d="M94.1415 12.8737L96.3113 16.2659C93.2302 18.2367 90.0557 20.9189 86.8979 24.265L83.9693 21.5012C87.3069 17.9646 90.7309 15.0552 94.1415 12.8737Z" fill="#172145"/>
<path d="M75.6239 31.9386L78.9441 34.217C76.627 37.5937 74.3995 41.2959 72.3101 45.2801L68.7439 43.4099C70.903 39.293 73.2118 35.4537 75.6239 31.9386Z" fill="#172145"/>
<path d="M63.1547 55.5566L66.8923 57.0551C66.0967 59.0393 65.3379 61.0694 64.6199 63.1413C63.9019 65.2133 63.2419 67.2776 62.6392 69.3286L58.7757 68.1931C59.3966 66.0806 60.0762 63.9553 60.8151 61.8229C61.554 59.6905 62.3353 57.6003 63.1547 55.5566Z" fill="#172145"/>
<path d="M55.6507 81.1938L59.6095 81.9311C59.2497 83.8625 58.9439 85.7679 58.6912 87.642L54.8121 86.2978C55.0509 84.6165 55.3303 82.9141 55.6507 81.1938Z" fill="#172145"/>
<path d="M209.166 51.7781L211.26 55.2177C214.468 53.2648 218.086 51.94 221.895 51.3371L221.265 47.3598C216.947 48.0433 212.831 49.5474 209.166 51.7781Z" fill="#172145"/>
<path d="M234.145 47.7668C236.216 48.2265 238.28 48.8815 240.31 49.7411C242.34 50.6008 244.247 51.6266 246.018 52.7944L243.802 56.1567C242.234 55.1231 240.544 54.2131 238.74 53.4492C236.936 52.6853 235.106 52.1048 233.273 51.698L234.145 47.7668Z" fill="#172145"/>
<path d="M255.274 61.7602L251.98 64.0761C254.198 67.2309 255.764 70.7505 256.594 74.4134L260.521 73.5232C259.573 69.3394 257.788 65.3368 255.274 61.7602Z" fill="#172145"/>
<path d="M260.749 86.3913L256.795 85.6266C256.445 87.4394 255.901 89.2413 255.153 91.0093C254.404 92.7773 253.488 94.4216 252.431 95.935L255.731 98.2419C256.949 96.4996 258.002 94.6086 258.861 92.5794C259.72 90.5503 260.345 88.4782 260.749 86.3913Z" fill="#172145"/>
<path d="M122.396 70.2865C121.977 74.5684 121.996 78.8818 122.453 83.1601L126.545 82.7585C126.115 78.7353 126.098 74.679 126.492 70.6525L122.396 70.2865Z" fill="#172145"/>
<path d="M125.12 95.7767C126.427 99.8536 128.158 103.832 130.312 107.649L133.931 105.776C131.907 102.19 130.281 98.4514 129.052 94.6197L125.12 95.7767Z" fill="#172145"/>
<path d="M142.382 123.069C140.771 121.54 139.256 119.953 137.837 118.315L141.004 115.8C142.338 117.34 143.763 118.833 145.279 120.272C146.795 121.712 148.366 123.064 149.986 124.329L147.385 127.381C145.663 126.036 143.993 124.599 142.382 123.069Z" fill="#172145"/>
<path d="M158.586 134.499C162.59 136.529 166.76 138.154 171.029 139.372L172.205 135.597C168.193 134.453 164.275 132.926 160.513 131.018L158.586 134.499Z" fill="#172145"/>
<path d="M184.228 141.822C188.7 142.223 193.205 142.206 197.674 141.77L197.258 137.852C193.056 138.262 188.819 138.278 184.614 137.9L184.228 141.822Z" fill="#172145"/>
<path d="M210.853 139.218C215.113 137.967 219.269 136.31 223.257 134.247L221.303 130.782C217.557 132.72 213.651 134.277 209.648 135.453L210.853 139.218Z" fill="#172145"/>
<path d="M234.401 127.04C236.113 125.681 237.771 124.23 239.369 122.687C240.967 121.145 242.469 119.545 243.874 117.896L240.687 115.407C239.366 116.958 237.953 118.463 236.449 119.915C234.945 121.367 233.385 122.731 231.776 124.009L234.401 127.04Z" fill="#172145"/>
<path d="M250.773 98.8364L253.94 101.844C253.151 103.647 252.274 105.424 251.31 107.167L247.675 105.325C248.845 103.21 249.877 101.043 250.773 98.8364Z" fill="#172145"/>
<path d="M51.6374 106.858L61.9876 93.3256L49.4399 89.9634L51.6374 106.858Z" fill="#172145"/>
</svg>
