<svg width="31" height="31" viewBox="0 0 31 31" fill="none" xmlns="http://www.w3.org/2000/svg">
<path d="M22.05 23C20.6625 23 19.55 24.1125 19.55 25.5C19.55 26.163 19.8134 26.7989 20.2822 27.2678C20.7511 27.7366 21.3869 28 22.05 28C22.713 28 23.3489 27.7366 23.8178 27.2678C24.2866 26.7989 24.55 26.163 24.55 25.5C24.55 24.837 24.2866 24.2011 23.8178 23.7322C23.3489 23.2634 22.713 23 22.05 23ZM2.04999 3V5.5H4.54999L9.04999 14.9875L7.34999 18.05C7.16249 18.4 7.04999 18.8125 7.04999 19.25C7.04999 19.913 7.31338 20.5489 7.78222 21.0178C8.25106 21.4866 8.88695 21.75 9.54999 21.75H24.55V19.25H10.075C9.99211 19.25 9.91262 19.2171 9.85402 19.1585C9.79541 19.0999 9.76249 19.0204 9.76249 18.9375C9.76249 18.875 9.77499 18.825 9.79999 18.7875L10.925 16.75H20.2375C21.175 16.75 22 16.225 22.425 15.4625L26.9 7.375C26.9875 7.175 27.05 6.9625 27.05 6.75C27.05 6.41848 26.9183 6.10054 26.6839 5.86612C26.4495 5.6317 26.1315 5.5 25.8 5.5H7.31249L6.13749 3M9.54999 23C8.16249 23 7.04999 24.1125 7.04999 25.5C7.04999 26.163 7.31338 26.7989 7.78222 27.2678C8.25106 27.7366 8.88695 28 9.54999 28C10.213 28 10.8489 27.7366 11.3178 27.2678C11.7866 26.7989 12.05 26.163 12.05 25.5C12.05 24.837 11.7866 24.2011 11.3178 23.7322C10.8489 23.2634 10.213 23 9.54999 23Z" fill="#172145"/>
</svg>
