<svg width="37" height="29" viewBox="0 0 37 29" fill="none" xmlns="http://www.w3.org/2000/svg">
<path fill-rule="evenodd" clip-rule="evenodd" d="M18.8549 0.617257C18.4639 0.232992 17.8354 0.235075 17.447 0.623505L6.03425 12.0362C5.83899 12.2315 5.83899 12.5481 6.03425 12.7433C6.22951 12.9386 6.54609 12.9386 6.74135 12.7433L18.1541 1.33055L23.4251 6.60157C23.4678 6.65378 23.5156 6.7016 23.5678 6.74425L29.5744 12.7509C29.7697 12.9461 30.0863 12.9461 30.2815 12.7509C30.4768 12.5556 30.4768 12.239 30.2815 12.0437L25.2 6.96222V1.66939H23.2V4.96222L18.8662 0.628404L18.8549 0.617257ZM28.2 12.2919L18.2 2.66939L8.20004 12.2919V14.6694H8.20002V27.6694C8.20002 28.2217 8.64773 28.6694 9.20002 28.6694H15.2V18.6694C15.2 18.1171 15.6477 17.6694 16.2 17.6694H20.2C20.7523 17.6694 21.2 18.1171 21.2 18.6694V28.6694H27.2C27.7501 28.6694 28.1965 28.2252 28.2 27.6759V28.1694C28.2 28.4455 28.4239 28.6694 28.7 28.6694C28.9761 28.6694 29.2 28.4455 29.2 28.1694C29.2 28.4455 29.4239 28.6694 29.7 28.6694C29.9761 28.6694 30.2 28.4455 30.2 28.1694C30.2 28.4455 30.4239 28.6694 30.7 28.6694C30.9761 28.6694 31.2 28.4455 31.2 28.1694C31.2 28.4455 31.4239 28.6694 31.7 28.6694C31.9761 28.6694 32.2 28.4455 32.2 28.1694V24.1694C32.2 23.8932 31.9761 23.6694 31.7 23.6694C31.4239 23.6694 31.2 23.8932 31.2 24.1694C31.2 23.8932 30.9761 23.6694 30.7 23.6694C30.4239 23.6694 30.2 23.8932 30.2 24.1694V23.1694C30.2 22.8932 29.9761 22.6694 29.7 22.6694C29.4239 22.6694 29.2 22.8932 29.2 23.1694V24.1694C29.2 23.8932 28.9761 23.6694 28.7 23.6694C28.4254 23.6694 28.2025 23.8907 28.2 24.1648V15.6694V13.9194V12.2919ZM11.2 11.6694C10.6477 11.6694 10.2 12.1171 10.2 12.6694V13.6694H13.2V11.6694H11.2ZM10.2 15.6694V14.6694H13.2V16.6694H11.2C10.6477 16.6694 10.2 16.2217 10.2 15.6694ZM16.2 11.6694H14.2V13.6694H17.2V12.6694C17.2 12.1171 16.7523 11.6694 16.2 11.6694ZM17.2 14.6694H14.2V16.6694H16.2C16.7523 16.6694 17.2 16.2217 17.2 15.6694V14.6694ZM4.7 23.6694C4.42385 23.6694 4.2 23.8932 4.2 24.1694V28.1694C4.2 28.4455 4.42385 28.6694 4.7 28.6694C4.97614 28.6694 5.2 28.4455 5.2 28.1694C5.2 28.4455 5.42385 28.6694 5.7 28.6694C5.97614 28.6694 6.2 28.4455 6.2 28.1694C6.2 28.4455 6.42385 28.6694 6.7 28.6694C6.97614 28.6694 7.2 28.4455 7.2 28.1694C7.2 28.4455 7.42385 28.6694 7.7 28.6694C7.97614 28.6694 8.2 28.4455 8.2 28.1694V24.1694C8.2 23.8932 7.97614 23.6694 7.7 23.6694C7.42385 23.6694 7.2 23.8932 7.2 24.1694V23.1694C7.2 22.8932 6.97614 22.6694 6.7 22.6694C6.42385 22.6694 6.2 22.8932 6.2 23.1694V24.1694C6.2 23.8932 5.97614 23.6694 5.7 23.6694C5.42385 23.6694 5.2 23.8932 5.2 24.1694C5.2 23.8932 4.97614 23.6694 4.7 23.6694Z" fill="#172145"/>
</svg>
