<svg width="31" height="31" viewBox="0 0 31 31" fill="none" xmlns="http://www.w3.org/2000/svg">
<path d="M12.7 4.25H5.2C4.86848 4.25 4.55053 4.3817 4.31611 4.61612C4.08169 4.85054 3.95 5.16848 3.95 5.5V13C3.95 13.3315 4.08169 13.6495 4.31611 13.8839C4.55053 14.1183 4.86848 14.25 5.2 14.25H12.7C13.0315 14.25 13.3495 14.1183 13.5839 13.8839C13.8183 13.6495 13.95 13.3315 13.95 13V5.5C13.95 5.16848 13.8183 4.85054 13.5839 4.61612C13.3495 4.3817 13.0315 4.25 12.7 4.25ZM25.2 4.25H17.7C17.3685 4.25 17.0505 4.3817 16.8161 4.61612C16.5817 4.85054 16.45 5.16848 16.45 5.5V13C16.45 13.3315 16.5817 13.6495 16.8161 13.8839C17.0505 14.1183 17.3685 14.25 17.7 14.25H25.2C25.5315 14.25 25.8495 14.1183 26.0839 13.8839C26.3183 13.6495 26.45 13.3315 26.45 13V5.5C26.45 5.16848 26.3183 4.85054 26.0839 4.61612C25.8495 4.3817 25.5315 4.25 25.2 4.25ZM12.7 16.75H5.2C4.86848 16.75 4.55053 16.8817 4.31611 17.1161C4.08169 17.3505 3.95 17.6685 3.95 18V25.5C3.95 25.8315 4.08169 26.1495 4.31611 26.3839C4.55053 26.6183 4.86848 26.75 5.2 26.75H12.7C13.0315 26.75 13.3495 26.6183 13.5839 26.3839C13.8183 26.1495 13.95 25.8315 13.95 25.5V18C13.95 17.6685 13.8183 17.3505 13.5839 17.1161C13.3495 16.8817 13.0315 16.75 12.7 16.75ZM21.45 16.75C22.4283 16.75 23.385 17.037 24.2018 17.5754C25.0186 18.1138 25.6595 18.8799 26.0451 19.779C26.4307 20.678 26.5442 21.6704 26.3714 22.6333C26.1985 23.5962 25.7471 24.4872 25.0728 25.196C24.3986 25.9048 23.5313 26.4003 22.5783 26.621C21.6252 26.8418 20.6284 26.7781 19.7112 26.4379C18.794 26.0977 17.9967 25.4959 17.4182 24.7071C16.8396 23.9183 16.5052 22.977 16.4562 22L16.45 21.75L16.4562 21.5C16.5204 20.2188 17.0745 19.0113 18.004 18.1272C18.9335 17.243 20.1672 16.75 21.45 16.75Z" fill="#172145"/>
</svg>
